<mxfile host="65bd71144e">
    <diagram id="36Y3DuKpmhtiShHlrJWB" name="Страница 1">
        <mxGraphModel dx="1894" dy="369" grid="1" gridSize="10" guides="1" tooltips="1" connect="1" arrows="1" fold="1" page="1" pageScale="1" pageWidth="827" pageHeight="1169" math="0" shadow="0">
            <root>
                <mxCell id="0"/>
                <mxCell id="1" parent="0"/>
                <mxCell id="CY1pD1H0MoDfbt2fblD8-8" value="" style="edgeStyle=orthogonalEdgeStyle;rounded=0;orthogonalLoop=1;jettySize=auto;html=1;" parent="1" source="CY1pD1H0MoDfbt2fblD8-2" target="CY1pD1H0MoDfbt2fblD8-7" edge="1">
                    <mxGeometry relative="1" as="geometry"/>
                </mxCell>
                <mxCell id="CY1pD1H0MoDfbt2fblD8-15" value="" style="edgeStyle=orthogonalEdgeStyle;rounded=0;orthogonalLoop=1;jettySize=auto;html=1;" parent="1" source="CY1pD1H0MoDfbt2fblD8-2" target="CY1pD1H0MoDfbt2fblD8-14" edge="1">
                    <mxGeometry relative="1" as="geometry"/>
                </mxCell>
                <mxCell id="CY1pD1H0MoDfbt2fblD8-2" value="i = 0&lt;br&gt;i &amp;lt; strings.Length&lt;br&gt;i++" style="shape=hexagon;perimeter=hexagonPerimeter2;whiteSpace=wrap;html=1;fixedSize=1;" parent="1" vertex="1">
                    <mxGeometry x="290" y="380" width="120" height="80" as="geometry"/>
                </mxCell>
                <mxCell id="CY1pD1H0MoDfbt2fblD8-6" value="" style="edgeStyle=orthogonalEdgeStyle;rounded=0;orthogonalLoop=1;jettySize=auto;html=1;" parent="1" source="CY1pD1H0MoDfbt2fblD8-4" target="CY1pD1H0MoDfbt2fblD8-2" edge="1">
                    <mxGeometry relative="1" as="geometry"/>
                </mxCell>
                <mxCell id="CY1pD1H0MoDfbt2fblD8-4" value="int shortStringsLength = 0&lt;br&gt;" style="whiteSpace=wrap;html=1;" parent="1" vertex="1">
                    <mxGeometry x="265" y="270" width="170" height="60" as="geometry"/>
                </mxCell>
                <mxCell id="CY1pD1H0MoDfbt2fblD8-10" value="" style="edgeStyle=orthogonalEdgeStyle;rounded=0;orthogonalLoop=1;jettySize=auto;html=1;" parent="1" source="CY1pD1H0MoDfbt2fblD8-7" target="CY1pD1H0MoDfbt2fblD8-9" edge="1">
                    <mxGeometry relative="1" as="geometry"/>
                </mxCell>
                <mxCell id="CY1pD1H0MoDfbt2fblD8-7" value="strings[i].Length &amp;lt;= maxLength" style="rhombus;whiteSpace=wrap;html=1;" parent="1" vertex="1">
                    <mxGeometry x="510" y="380" width="190" height="80" as="geometry"/>
                </mxCell>
                <mxCell id="CY1pD1H0MoDfbt2fblD8-9" value="shortStringsLength ++" style="whiteSpace=wrap;html=1;" parent="1" vertex="1">
                    <mxGeometry x="527.5" y="525" width="155" height="60" as="geometry"/>
                </mxCell>
                <mxCell id="CY1pD1H0MoDfbt2fblD8-11" value="Yes" style="text;html=1;strokeColor=none;fillColor=none;align=center;verticalAlign=middle;whiteSpace=wrap;rounded=0;" parent="1" vertex="1">
                    <mxGeometry x="590" y="470" width="60" height="30" as="geometry"/>
                </mxCell>
                <mxCell id="CY1pD1H0MoDfbt2fblD8-12" value="" style="endArrow=classic;html=1;rounded=0;exitX=1;exitY=0.5;exitDx=0;exitDy=0;entryX=0.5;entryY=1;entryDx=0;entryDy=0;" parent="1" source="CY1pD1H0MoDfbt2fblD8-7" target="CY1pD1H0MoDfbt2fblD8-2" edge="1">
                    <mxGeometry width="50" height="50" relative="1" as="geometry">
                        <mxPoint x="760" y="380" as="sourcePoint"/>
                        <mxPoint x="360" y="620" as="targetPoint"/>
                        <Array as="points">
                            <mxPoint x="750" y="420"/>
                            <mxPoint x="750" y="610"/>
                            <mxPoint x="350" y="610"/>
                        </Array>
                    </mxGeometry>
                </mxCell>
                <mxCell id="CY1pD1H0MoDfbt2fblD8-13" value="No" style="text;html=1;strokeColor=none;fillColor=none;align=center;verticalAlign=middle;whiteSpace=wrap;rounded=0;" parent="1" vertex="1">
                    <mxGeometry x="690" y="390" width="60" height="30" as="geometry"/>
                </mxCell>
                <mxCell id="CY1pD1H0MoDfbt2fblD8-17" value="" style="edgeStyle=orthogonalEdgeStyle;rounded=0;orthogonalLoop=1;jettySize=auto;html=1;" parent="1" source="CY1pD1H0MoDfbt2fblD8-14" target="CY1pD1H0MoDfbt2fblD8-16" edge="1">
                    <mxGeometry relative="1" as="geometry"/>
                </mxCell>
                <mxCell id="CY1pD1H0MoDfbt2fblD8-14" value="var shortStrings = new string[shortStringsLength]&lt;br&gt;int count = 0" style="whiteSpace=wrap;html=1;" parent="1" vertex="1">
                    <mxGeometry x="-60" y="390" width="270" height="60" as="geometry"/>
                </mxCell>
                <mxCell id="CY1pD1H0MoDfbt2fblD8-19" value="" style="edgeStyle=orthogonalEdgeStyle;rounded=0;orthogonalLoop=1;jettySize=auto;html=1;" parent="1" source="CY1pD1H0MoDfbt2fblD8-16" target="CY1pD1H0MoDfbt2fblD8-18" edge="1">
                    <mxGeometry relative="1" as="geometry"/>
                </mxCell>
                <mxCell id="CY1pD1H0MoDfbt2fblD8-29" value="" style="edgeStyle=orthogonalEdgeStyle;rounded=0;orthogonalLoop=1;jettySize=auto;html=1;" parent="1" source="CY1pD1H0MoDfbt2fblD8-16" target="CY1pD1H0MoDfbt2fblD8-28" edge="1">
                    <mxGeometry relative="1" as="geometry"/>
                </mxCell>
                <mxCell id="CY1pD1H0MoDfbt2fblD8-16" value="i = 0&lt;br&gt;i &amp;lt; shortStrings.Length&lt;br&gt;i++" style="shape=hexagon;perimeter=hexagonPerimeter2;whiteSpace=wrap;html=1;fixedSize=1;" parent="1" vertex="1">
                    <mxGeometry x="-22.5" y="525" width="195" height="80" as="geometry"/>
                </mxCell>
                <mxCell id="CY1pD1H0MoDfbt2fblD8-22" value="" style="edgeStyle=orthogonalEdgeStyle;rounded=0;orthogonalLoop=1;jettySize=auto;html=1;" parent="1" source="CY1pD1H0MoDfbt2fblD8-18" target="CY1pD1H0MoDfbt2fblD8-21" edge="1">
                    <mxGeometry relative="1" as="geometry"/>
                </mxCell>
                <mxCell id="CY1pD1H0MoDfbt2fblD8-18" value="strings[i].Length &amp;lt;= maxLength" style="rhombus;whiteSpace=wrap;html=1;" parent="1" vertex="1">
                    <mxGeometry x="-32.5" y="670" width="215" height="80" as="geometry"/>
                </mxCell>
                <mxCell id="CY1pD1H0MoDfbt2fblD8-21" value="shortStrings[count] = strings[i]&lt;br&gt;count++" style="whiteSpace=wrap;html=1;" parent="1" vertex="1">
                    <mxGeometry x="-7.5" y="820" width="165" height="60" as="geometry"/>
                </mxCell>
                <mxCell id="CY1pD1H0MoDfbt2fblD8-23" value="" style="endArrow=classic;html=1;rounded=0;exitX=0;exitY=0.5;exitDx=0;exitDy=0;entryX=0;entryY=0.5;entryDx=0;entryDy=0;" parent="1" source="CY1pD1H0MoDfbt2fblD8-21" target="CY1pD1H0MoDfbt2fblD8-16" edge="1">
                    <mxGeometry width="50" height="50" relative="1" as="geometry">
                        <mxPoint x="270" y="710" as="sourcePoint"/>
                        <mxPoint x="-60" y="720" as="targetPoint"/>
                        <Array as="points">
                            <mxPoint x="-70" y="850"/>
                            <mxPoint x="-70" y="565"/>
                        </Array>
                    </mxGeometry>
                </mxCell>
                <mxCell id="CY1pD1H0MoDfbt2fblD8-24" value="" style="endArrow=classic;html=1;rounded=0;exitX=0;exitY=0.5;exitDx=0;exitDy=0;" parent="1" source="CY1pD1H0MoDfbt2fblD8-18" edge="1">
                    <mxGeometry width="50" height="50" relative="1" as="geometry">
                        <mxPoint x="-30" y="760" as="sourcePoint"/>
                        <mxPoint x="-70" y="710" as="targetPoint"/>
                    </mxGeometry>
                </mxCell>
                <mxCell id="CY1pD1H0MoDfbt2fblD8-25" value="" style="endArrow=classic;html=1;rounded=0;exitX=0.5;exitY=1;exitDx=0;exitDy=0;" parent="1" source="CY1pD1H0MoDfbt2fblD8-9" edge="1">
                    <mxGeometry width="50" height="50" relative="1" as="geometry">
                        <mxPoint x="670" y="680" as="sourcePoint"/>
                        <mxPoint x="605" y="610" as="targetPoint"/>
                    </mxGeometry>
                </mxCell>
                <mxCell id="CY1pD1H0MoDfbt2fblD8-26" value="Yes" style="text;html=1;strokeColor=none;fillColor=none;align=center;verticalAlign=middle;whiteSpace=wrap;rounded=0;" parent="1" vertex="1">
                    <mxGeometry x="70" y="760" width="60" height="30" as="geometry"/>
                </mxCell>
                <mxCell id="CY1pD1H0MoDfbt2fblD8-27" value="No" style="text;html=1;strokeColor=none;fillColor=none;align=center;verticalAlign=middle;whiteSpace=wrap;rounded=0;" parent="1" vertex="1">
                    <mxGeometry x="-80" y="680" width="60" height="30" as="geometry"/>
                </mxCell>
                <mxCell id="CY1pD1H0MoDfbt2fblD8-28" value="Вывод:&lt;br&gt;shortStrings" style="shape=document;whiteSpace=wrap;html=1;boundedLbl=1;" parent="1" vertex="1">
                    <mxGeometry x="220" y="910" width="120" height="80" as="geometry"/>
                </mxCell>
                <mxCell id="CY1pD1H0MoDfbt2fblD8-31" value="" style="edgeStyle=orthogonalEdgeStyle;rounded=0;orthogonalLoop=1;jettySize=auto;html=1;entryX=0.5;entryY=0;entryDx=0;entryDy=0;" parent="1" source="CY1pD1H0MoDfbt2fblD8-30" target="CY1pD1H0MoDfbt2fblD8-4" edge="1">
                    <mxGeometry relative="1" as="geometry">
                        <mxPoint x="350" y="130" as="targetPoint"/>
                    </mxGeometry>
                </mxCell>
                <mxCell id="CY1pD1H0MoDfbt2fblD8-30" value="Метод&lt;br&gt;GetStringsByMaxLength&lt;br&gt;Аргументы:&lt;br&gt;string[] strings&lt;br&gt;int maxLength = 3" style="shape=document;whiteSpace=wrap;html=1;boundedLbl=1;" parent="1" vertex="1">
                    <mxGeometry x="247.5" y="80" width="205" height="110" as="geometry"/>
                </mxCell>
            </root>
        </mxGraphModel>
    </diagram>
</mxfile>